<svg xmlns="http://www.w3.org/2000/svg" xmlns:xlink="http://www.w3.org/1999/xlink" version="1.0" viewBox="0 0 326.124 91.015">
  <path d="M126.246 13.341h5.803V6.7h4.233v6.641h9.08v3.55h-9.08V39.35c0 3.414 2.048 5.735 5.188 5.803 1.366 0 3.141-.272 4.506-.683v3.755c-1.434.479-3.55.819-5.461.819-5.052 0-8.465-3.755-8.465-9.353v-22.8h-5.803v-3.55zM184.275 27.199v20.48h-4.232v-19.66c0-7.168-4.506-12.152-11.128-12.152-6.485 0-11.059 4.71-11.059 11.538V47.68h-4.232V6.7h4.232v11.761c2.253-4.028 6.349-6.485 11.538-6.485 8.873 0 14.881 6.28 14.881 15.223zM196.497 1.01c2.101 0 3.5 1.478 3.5 3.5 0 2.1-1.399 3.5-3.5 3.5-2.1 0-3.5-1.4-3.5-3.5 0-2.022 1.4-3.5 3.5-3.5zm-2.117 12.331h4.233V47.68h-4.233V13.341zM240.053 27.336V47.68h-4.232V28.019c0-7.168-4.438-12.152-11.06-12.152-6.485 0-11.128 4.71-11.128 11.538V47.68h-4.232V13.341h4.232v5.188c2.185-4.096 6.349-6.554 11.537-6.554 8.875.001 14.883 6.281 14.883 15.361zM278.815 36.367c-2.007 5.228-6.758 8.514-12.886 8.514-8.056 0-13.927-6.008-13.927-14.404 0-8.466 5.803-14.61 13.927-14.61 5.538 0 9.945 2.814 12.225 7.25h4.545c-2.605-6.766-8.854-11.141-16.77-11.141-10.582 0-18.159 7.714-18.159 18.501 0 10.581 7.509 18.363 17.954 18.363 6.144 0 11.196-3.208 14.063-8.123v6.963c0 7.646-5.599 13.176-13.381 13.176-7.373 0-13.107-4.711-13.927-11.128h-3.959v2.116c1.638 7.51 9.216 12.903 18.022 12.903 10.172 0 17.477-7.032 17.477-16.931v-11.45h-5.204z"/>
  <g fill="#858585">
    <path d="M91.458 78.882h3.428c1.61 0 2.774.24 3.494.722s1.079 1.242 1.079 2.282c0 .72-.201 1.313-.602 1.78-.401.468-.986.771-1.755.908v.083c1.842.315 2.764 1.284 2.764 2.905 0 1.084-.367 1.931-1.1 2.539-.733.608-1.758.913-3.075.913h-4.232V78.882zm1.411 5.194h2.324c.996 0 1.712-.156 2.149-.469s.655-.839.655-1.581c0-.68-.243-1.171-.73-1.473s-1.262-.452-2.324-.452h-2.075v3.975zm0 1.195v4.54H95.4c.979 0 1.716-.189 2.211-.568s.743-.973.743-1.78c0-.753-.253-1.306-.759-1.66-.506-.354-1.277-.531-2.311-.531h-2.415zM111.614 91.015h-6.764V78.882h6.764v1.253h-5.353v3.908h5.029v1.245h-5.029v4.465h5.353v1.262zM123.529 87.786c0 1.068-.387 1.9-1.162 2.498-.775.598-1.826.896-3.154.896-1.438 0-2.545-.186-3.319-.556v-1.361c.498.21 1.04.376 1.626.498.586.121 1.167.183 1.743.183.94 0 1.649-.179 2.125-.535.476-.357.714-.854.714-1.49 0-.42-.084-.765-.253-1.033-.169-.269-.451-.516-.847-.742-.396-.228-.998-.484-1.805-.772-1.128-.403-1.935-.882-2.419-1.436-.484-.553-.726-1.275-.726-2.166 0-.935.351-1.679 1.054-2.232s1.632-.83 2.789-.83c1.206 0 2.315.222 3.328.664l-.439 1.229c-1.001-.421-1.975-.631-2.921-.631-.747 0-1.331.16-1.751.481-.421.32-.631.767-.631 1.336 0 .421.077.765.232 1.033.155.269.416.515.784.738.368.225.931.472 1.689.743 1.272.454 2.148.94 2.626 1.461.478.519.717 1.194.717 2.024zM132.125 91.015h-1.411v-10.88h-3.842v-1.253h9.096v1.253h-3.842v10.88zM154.594 91.015l-1.51-3.859h-4.863l-1.494 3.859H145.3l4.797-12.183h1.187l4.772 12.183h-1.462zm-1.95-5.129l-1.411-3.76c-.182-.476-.371-1.059-.564-1.751-.122.531-.296 1.115-.523 1.751l-1.427 3.76h3.925zM160.102 91.015V78.882h1.411v12.133h-1.411zM168.632 85.969v5.046h-1.411V78.882h3.328c1.488 0 2.588.284 3.299.854.711.569 1.066 1.428 1.066 2.572 0 1.604-.813 2.689-2.439 3.254l3.294 5.452h-1.668l-2.938-5.046h-2.531zm0-1.212h1.934c.996 0 1.727-.197 2.19-.593.465-.396.697-.989.697-1.78 0-.803-.236-1.381-.709-1.734-.474-.354-1.232-.531-2.278-.531h-1.834v4.638zM194.595 82.417c0 1.229-.419 2.173-1.257 2.834-.839.661-2.038.992-3.598.992h-1.428v4.771h-1.411V78.882h3.146c3.033 0 4.548 1.178 4.548 3.535zm-6.282 2.614h1.27c1.25 0 2.155-.202 2.714-.606.559-.403.838-1.051.838-1.941 0-.803-.263-1.399-.788-1.793-.525-.393-1.345-.589-2.456-.589h-1.577v4.929zM208.676 78.882v7.851c0 1.383-.418 2.471-1.253 3.262-.836.791-1.983 1.187-3.444 1.187-1.46 0-2.591-.398-3.39-1.195-.8-.797-1.199-1.892-1.199-3.286v-7.817h1.41v7.917c0 1.013.277 1.79.83 2.332.554.542 1.366.813 2.44.813 1.023 0 1.812-.272 2.365-.817.553-.545.829-1.327.829-2.345v-7.9h1.412zM215.678 85.969v5.046h-1.411V78.882h3.328c1.488 0 2.588.284 3.299.854.711.569 1.066 1.428 1.066 2.572 0 1.604-.813 2.689-2.439 3.254l3.294 5.452h-1.668l-2.938-5.046h-2.531zm0-1.212h1.934c.996 0 1.727-.197 2.19-.593.465-.396.697-.989.697-1.78 0-.803-.236-1.381-.709-1.734-.474-.354-1.232-.531-2.278-.531h-1.834v4.638zM227.153 91.015V78.882h1.411v12.133h-1.411zM235.682 91.015h-1.411V78.882h6.764v1.253h-5.353v4.439h5.029v1.254h-5.029v5.187zM245.423 91.015V78.882h1.411v12.133h-1.411zM259.305 91.015h-6.764V78.882h6.764v1.253h-5.353v3.908h5.029v1.245h-5.029v4.465h5.353v1.262zM265.785 85.969v5.046h-1.411V78.882h3.328c1.488 0 2.588.284 3.299.854.711.569 1.066 1.428 1.066 2.572 0 1.604-.813 2.689-2.439 3.254l3.294 5.452h-1.668l-2.938-5.046h-2.531zm0-1.212h1.934c.996 0 1.727-.197 2.19-.593.465-.396.697-.989.697-1.78 0-.803-.236-1.381-.709-1.734-.474-.354-1.232-.531-2.278-.531h-1.834v4.638zM284.106 87.786c0 1.068-.387 1.9-1.162 2.498-.774.598-1.825.896-3.153.896-1.438 0-2.545-.186-3.319-.556v-1.361c.498.21 1.04.376 1.626.498.587.121 1.168.183 1.743.183.94 0 1.648-.179 2.125-.535.476-.357.713-.854.713-1.49 0-.42-.084-.765-.253-1.033s-.451-.516-.847-.742c-.396-.228-.997-.484-1.805-.772-1.129-.403-1.935-.882-2.419-1.436-.484-.553-.727-1.275-.727-2.166 0-.935.352-1.679 1.055-2.232.702-.554 1.632-.83 2.788-.83 1.206 0 2.315.222 3.328.664l-.44 1.229c-1.001-.421-1.975-.631-2.921-.631-.747 0-1.331.16-1.751.481-.421.32-.631.767-.631 1.336 0 .421.077.765.232 1.033.154.269.416.515.784.738.368.225.931.472 1.688.743 1.272.454 2.148.94 2.627 1.461.48.519.719 1.194.719 2.024z"/>
  </g>
  <defs>
    <path id="a" d="M23.655 0l17.148 45.005v2.644h-3.864L33.076 37.55H7.727L3.863 47.648H0v-2.644L17.216 0h6.439zM8.947 33.89h22.977L20.469 4.067 8.947 33.89z"/>
  </defs>
  <clipPath id="b">
    <use overflow="visible" xlink:href="#a"/>
  </clipPath>
  <linearGradient id="c" x1="14.9141" x2="107.5759" y1="77.749" y2="-14.9128" gradientUnits="userSpaceOnUse">
    <stop offset="0" stop-color="#4481eb"/>
    <stop offset=".1997" stop-color="#3095f1"/>
    <stop offset=".4957" stop-color="#18abf8"/>
    <stop offset=".7702" stop-color="#09b9fd"/>
    <stop offset="1" stop-color="#04befe"/>
  </linearGradient>
  <path fill="url(#c)" d="M0 0h122.489v62.835H0z" clip-path="url(#b)"/>
  <g>
    <defs>
      <path id="d" d="M50.942 1.011c2.1 0 3.5 1.478 3.5 3.5 0 2.1-1.4 3.5-3.5 3.5s-3.5-1.4-3.5-3.5c0-2.023 1.4-3.5 3.5-3.5zm-2.116 12.33h4.232V47.68h-4.232V13.341z"/>
    </defs>
    <clipPath id="e">
      <use overflow="visible" xlink:href="#d"/>
    </clipPath>
    <linearGradient id="f" x1="14.9141" x2="107.5759" y1="77.749" y2="-14.9128" gradientUnits="userSpaceOnUse">
      <stop offset="0" stop-color="#4481eb"/>
      <stop offset=".1997" stop-color="#3095f1"/>
      <stop offset=".4957" stop-color="#18abf8"/>
      <stop offset=".7702" stop-color="#09b9fd"/>
      <stop offset="1" stop-color="#04befe"/>
    </linearGradient>
    <path fill="url(#f)" d="M0 0h122.489v62.835H0z" clip-path="url(#e)"/>
  </g>
  <g>
    <defs>
      <path id="g" d="M85.35 14.707v3.686h-2.321c-.956-1.501-3.482-2.526-6.008-2.526-5.393 0-8.943 5.052-8.943 12.357V47.68h-4.232V13.341h4.096v5.257c1.912-4.096 5.325-6.554 9.694-6.554 2.867 0 6.212 1.092 7.714 2.663z"/>
    </defs>
    <clipPath id="h">
      <use overflow="visible" xlink:href="#g"/>
    </clipPath>
    <linearGradient id="i" x1="14.9141" x2="107.5759" y1="77.749" y2="-14.9128" gradientUnits="userSpaceOnUse">
      <stop offset="0" stop-color="#4481eb"/>
      <stop offset=".1997" stop-color="#3095f1"/>
      <stop offset=".4957" stop-color="#18abf8"/>
      <stop offset=".7702" stop-color="#09b9fd"/>
      <stop offset="1" stop-color="#04befe"/>
    </linearGradient>
    <path fill="url(#i)" d="M0 0h122.489v62.835H0z" clip-path="url(#h)"/>
  </g>
  <g>
    <defs>
      <path id="j" d="M94.977 59.354c4.232 0 7.032-4.711 10.104-11.811l-15.77-32.154v-2.048h3.686l14.132 29.014 11.742-29.014h3.618v2.048l-13.244 32.632c-3.072 7.44-7.1 14.813-13.722 14.813-1.297 0-3.208-.272-4.369-.683v-3.413c1.229.342 2.867.616 3.823.616z"/>
    </defs>
    <clipPath id="k">
      <use overflow="visible" xlink:href="#j"/>
    </clipPath>
    <linearGradient id="l" x1="14.9141" x2="107.5759" y1="77.749" y2="-14.9128" gradientUnits="userSpaceOnUse">
      <stop offset="0" stop-color="#4481eb"/>
      <stop offset=".1997" stop-color="#3095f1"/>
      <stop offset=".4957" stop-color="#18abf8"/>
      <stop offset=".7702" stop-color="#09b9fd"/>
      <stop offset="1" stop-color="#04befe"/>
    </linearGradient>
    <path fill="url(#l)" d="M0 0h122.489v62.835H0z" clip-path="url(#k)"/>
  </g>
  <g>
    <defs>
      <path id="m" d="M313.648 22.757l-.311-.596c-.084-.14-.03-.106-.229-.385l-.17-.221c-.249-.302-.383-.559-.811-.912-.744-.693-1.484-1.093-2.278-1.347-1.576-.535-3.156-.403-4.441.063-1.303.45-2.338 1.319-2.885 2.314-.604.999-.484 2.044-.376 2.765.219.73.498 1.228.744 1.532.218.313.333.481.333.481s-.067-.191-.192-.551c-.169-.344-.252-.886-.334-1.543.046-.648.109-1.459.714-2.094.553-.637 1.431-1.112 2.454-1.325 1.021-.205 2.197-.108 3.215.349.509.205 1.001.599 1.285.926.163.092.387.497.591.783l.13.19c.002.014.059.13.063.149l.185.416c.458 1.14.315 2.194-.364 3.145-.676.959-1.9 1.741-3.215 2.206-.797.345-1.774.583-2.631.639 0 0-8.833 1-20.333-3.375 0 0 9.332 7.293 20.666 6.126l-.001-.005c.213-.007.424-.023.634-.058.866-.107 1.85-.333 2.667-.646 1.688-.651 3.337-1.661 4.488-3.318 1.246-1.622 1.24-4.126.402-5.708z"/>
    </defs>
    <clipPath id="n">
      <use overflow="visible" xlink:href="#m"/>
    </clipPath>
    <linearGradient id="o" x1="273.1724" x2="315.0713" y1="49.7959" y2="7.897" gradientUnits="userSpaceOnUse">
      <stop offset="0" stop-color="#4481eb"/>
      <stop offset=".1997" stop-color="#3095f1"/>
      <stop offset=".4957" stop-color="#18abf8"/>
      <stop offset=".7702" stop-color="#09b9fd"/>
      <stop offset="1" stop-color="#04befe"/>
    </linearGradient>
    <path fill="url(#o)" d="M262.119 18.95h64.005v19.793h-64.005z" clip-path="url(#n)"/>
  </g>
  <g>
    <defs>
      <path id="p" d="M324.868 33.282c-.844.355-1.959 1.115-3.563 1.64-1.613.506-3.527 1.23-5.87 1.454-.576.089-1.169.185-1.78.279-.621.011-1.258.022-1.913.04-1.305.033-2.672.129-4.104-.051-1.431-.106-2.918-.184-4.436-.511-1.529-.244-3.098-.534-4.663-.993-1.573-.363-3.2-.892-4.866-1.476-1.691-.537-3.251-1.188-4.989-1.823-2.484-.961-5.03-1.999-7.6-3.059h-.001c-9.126-3.583-17.577-4.904-18.964-4.716 1.456.572 2.914 1.149 4.369 1.747 4.261 1.709 8.511 3.482 12.71 5.149l.003.003 11.94 4.752s1.193.537 3.276 1.157l-.017-.002s11.165 4.103 22.673.672l-.045-.001c1.763-.475 3.257-1.147 4.526-1.666 1.594-.654 2.634-1.588 3.428-2.024.769-.492 1.141-1.2 1.141-1.2s-.436.221-1.255.629z"/>
    </defs>
    <clipPath id="q">
      <use overflow="visible" xlink:href="#p"/>
    </clipPath>
    <linearGradient id="r" x1="273.1294" x2="315.1143" y1="49.9248" y2="7.9399" gradientUnits="userSpaceOnUse">
      <stop offset="0" stop-color="#4481eb"/>
      <stop offset=".1997" stop-color="#3095f1"/>
      <stop offset=".4957" stop-color="#18abf8"/>
      <stop offset=".7702" stop-color="#09b9fd"/>
      <stop offset="1" stop-color="#04befe"/>
    </linearGradient>
    <path fill="url(#r)" d="M262.119 18.95h64.005v19.965h-64.005z" clip-path="url(#q)"/>
  </g>
</svg>
