<svg xmlns="http://www.w3.org/2000/svg" xmlns:xlink="http://www.w3.org/1999/xlink" version="1.0" viewBox="0 0 326.123 91.016">
  <g fill="#FFF">
    <path d="M126.246 13.341h5.803V6.7h4.233v6.641h9.079v3.551h-9.079V39.35c0 3.414 2.048 5.734 5.188 5.803 1.366 0 3.141-.272 4.506-.683v3.755c-1.434.479-3.55.818-5.461.818-5.052 0-8.465-3.755-8.465-9.353v-22.8h-5.803l-.001-3.549zM184.275 27.199v20.48h-4.231v-19.66c0-7.168-4.506-12.152-11.128-12.152-6.485 0-11.06 4.71-11.06 11.538V47.68h-4.231V6.7h4.231v11.761c2.253-4.027 6.35-6.484 11.538-6.484 8.873-.001 14.881 6.279 14.881 15.222zM196.497 1.01c2.101 0 3.5 1.479 3.5 3.5 0 2.101-1.399 3.5-3.5 3.5s-3.5-1.399-3.5-3.5c0-2.022 1.4-3.5 3.5-3.5zm-2.117 12.331h4.232v34.34h-4.232v-34.34zM240.053 27.336V47.68h-4.232V28.019c0-7.168-4.438-12.152-11.06-12.152-6.485 0-11.128 4.71-11.128 11.538V47.68h-4.232V13.34h4.232v5.188c2.185-4.096 6.349-6.554 11.537-6.554 8.875.002 14.883 6.282 14.883 15.362zM278.815 36.367c-2.007 5.229-6.758 8.514-12.886 8.514-8.056 0-13.927-6.008-13.927-14.403 0-8.467 5.803-14.61 13.927-14.61 5.538 0 9.945 2.814 12.225 7.25h4.546c-2.605-6.766-8.854-11.141-16.771-11.141-10.582 0-18.159 7.714-18.159 18.501 0 10.581 7.509 18.362 17.954 18.362 6.145 0 11.196-3.208 14.063-8.123v6.964c0 7.646-5.6 13.176-13.381 13.176-7.373 0-13.107-4.711-13.928-11.128h-3.959v2.115c1.639 7.511 9.216 12.903 18.022 12.903 10.172 0 17.477-7.032 17.477-16.931v-11.45l-5.203.001z"/>
  </g>
  <g fill="#FFF">
    <path d="M91.458 78.882h3.428c1.61 0 2.774.24 3.494.723.72.481 1.079 1.242 1.079 2.281 0 .721-.201 1.313-.603 1.78-.4.468-.985.771-1.755.908v.083c1.842.315 2.765 1.284 2.765 2.905 0 1.084-.367 1.931-1.101 2.539-.732.607-1.758.913-3.075.913h-4.231l-.001-12.132zm1.411 5.194h2.323c.996 0 1.712-.156 2.149-.469.437-.313.655-.839.655-1.581 0-.68-.243-1.171-.73-1.474-.487-.302-1.262-.451-2.324-.451h-2.074l.001 3.975zm0 1.195v4.54h2.53c.979 0 1.717-.189 2.211-.568.495-.379.743-.973.743-1.78 0-.753-.253-1.306-.759-1.659-.506-.354-1.277-.531-2.311-.531l-2.414-.002zM111.614 91.015h-6.764V78.882h6.764v1.253h-5.353v3.908h5.029v1.245h-5.029v4.465h5.353v1.262zM123.529 87.786c0 1.068-.387 1.9-1.161 2.498-.775.598-1.826.896-3.154.896-1.438 0-2.545-.187-3.319-.557v-1.36c.498.21 1.04.376 1.626.498.586.12 1.167.183 1.743.183.94 0 1.649-.179 2.125-.535.476-.357.714-.854.714-1.49 0-.42-.084-.765-.253-1.032-.169-.27-.451-.517-.847-.742-.396-.229-.998-.484-1.806-.772-1.128-.403-1.935-.882-2.419-1.436-.483-.554-.726-1.275-.726-2.166 0-.936.351-1.68 1.054-2.232s1.632-.83 2.789-.83c1.206 0 2.315.223 3.328.664l-.438 1.229c-1.001-.421-1.976-.631-2.922-.631-.746 0-1.33.159-1.751.48-.421.32-.631.767-.631 1.336 0 .421.077.765.232 1.033s.416.515.784.738c.368.225.931.472 1.688.742 1.272.454 2.148.94 2.626 1.462.479.519.718 1.194.718 2.024zM132.125 91.015h-1.411v-10.88h-3.842v-1.253h9.096v1.253h-3.842l-.001 10.88zM154.594 91.015l-1.51-3.859h-4.863l-1.494 3.859H145.3l4.797-12.184h1.188l4.771 12.184h-1.462zm-1.95-5.13l-1.411-3.76c-.182-.476-.371-1.059-.563-1.751-.122.531-.296 1.115-.523 1.751l-1.427 3.76h3.924zM160.102 91.015V78.882h1.411v12.134h-1.411zM168.632 85.969v5.047h-1.411V78.882h3.328c1.488 0 2.588.284 3.299.854.711.569 1.066 1.428 1.066 2.572 0 1.604-.813 2.688-2.439 3.254l3.294 5.452h-1.668l-2.938-5.047-2.531.002zm0-1.212h1.934c.996 0 1.728-.196 2.19-.593.465-.396.697-.989.697-1.78 0-.803-.236-1.381-.709-1.733-.475-.354-1.232-.531-2.278-.531h-1.834v4.637zM194.595 82.417c0 1.229-.419 2.173-1.257 2.834-.839.661-2.038.992-3.599.992h-1.428v4.771H186.9V78.882h3.146c3.034 0 4.549 1.178 4.549 3.535zm-6.282 2.614h1.271c1.25 0 2.154-.202 2.714-.606.559-.402.838-1.051.838-1.94 0-.803-.263-1.399-.788-1.793s-1.345-.589-2.456-.589h-1.577l-.002 4.928zM208.676 78.882v7.852c0 1.383-.418 2.471-1.253 3.262-.836.791-1.983 1.188-3.444 1.188-1.46 0-2.591-.398-3.39-1.195-.8-.797-1.199-1.892-1.199-3.286v-7.817h1.41v7.917c0 1.014.277 1.79.83 2.332.554.542 1.366.813 2.439.813 1.023 0 1.813-.272 2.365-.817s.829-1.327.829-2.345v-7.9h1.412v-.004zM215.678 85.969v5.047h-1.411V78.882h3.328c1.488 0 2.588.284 3.299.854.711.569 1.066 1.428 1.066 2.572 0 1.604-.813 2.688-2.439 3.254l3.294 5.452h-1.668l-2.938-5.047-2.531.002zm0-1.212h1.934c.996 0 1.728-.196 2.19-.593.465-.396.697-.989.697-1.78 0-.803-.236-1.381-.709-1.733-.475-.354-1.232-.531-2.278-.531h-1.834v4.637zM227.153 91.015V78.882h1.411v12.134h-1.411zM235.682 91.015h-1.411V78.882h6.765v1.253h-5.354v4.439h5.029v1.254h-5.029v5.187zM245.423 91.015V78.882h1.411v12.134h-1.411zM259.305 91.015h-6.764V78.882h6.764v1.253h-5.353v3.908h5.028v1.245h-5.028v4.465h5.353v1.262zM265.785 85.969v5.047h-1.411V78.882h3.328c1.487 0 2.588.284 3.299.854.711.569 1.065 1.428 1.065 2.572 0 1.604-.813 2.688-2.438 3.254l3.294 5.452h-1.668l-2.938-5.047-2.531.002zm0-1.212h1.934c.996 0 1.727-.196 2.19-.593.465-.396.696-.989.696-1.78 0-.803-.235-1.381-.709-1.733-.474-.354-1.231-.531-2.277-.531h-1.834v4.637zM284.106 87.786c0 1.068-.387 1.9-1.162 2.498-.773.598-1.824.896-3.152.896-1.438 0-2.545-.187-3.319-.557v-1.36c.498.21 1.04.376 1.626.498.587.12 1.168.183 1.743.183.939 0 1.647-.179 2.125-.535.476-.357.713-.854.713-1.49 0-.42-.084-.765-.253-1.032-.169-.269-.451-.517-.847-.742-.396-.229-.997-.484-1.806-.772-1.129-.403-1.935-.882-2.419-1.436-.483-.554-.727-1.275-.727-2.166 0-.936.352-1.68 1.055-2.232.702-.554 1.632-.83 2.788-.83 1.206 0 2.315.223 3.328.664l-.44 1.229c-1.001-.421-1.975-.631-2.921-.631-.747 0-1.331.159-1.751.48-.421.32-.631.767-.631 1.336 0 .421.077.765.232 1.033.153.269.416.515.783.738.368.225.932.472 1.688.742 1.272.454 2.148.94 2.627 1.462.481.519.72 1.194.72 2.024z"/>
  </g>
  <defs>
    <path id="a" d="M23.655 0l17.148 45.005v2.645h-3.864l-3.862-10.1H7.727L3.863 47.648H0v-2.645L17.216 0h6.439zM8.947 33.89h22.978L20.469 4.067 8.947 33.89z"/>
  </defs>
  <use fill="#FFF" overflow="visible" xlink:href="#a"/>
  <clipPath id="b">
    <use overflow="visible" xlink:href="#a"/>
  </clipPath>
  <path fill="#FFF" d="M0 0h122.488v62.835H0z" clip-path="url(#b)"/>
  <defs>
    <path id="c" d="M50.942 1.01c2.101 0 3.5 1.479 3.5 3.5 0 2.101-1.399 3.5-3.5 3.5-2.1 0-3.5-1.399-3.5-3.5 0-2.022 1.4-3.5 3.5-3.5zm-2.116 12.331h4.231v34.34h-4.231v-34.34z"/>
  </defs>
  <use fill="#FFF" overflow="visible" xlink:href="#c"/>
  <clipPath id="d">
    <use overflow="visible" xlink:href="#c"/>
  </clipPath>
  <path fill="#FFF" d="M0 0h122.488v62.835H0z" clip-path="url(#d)"/>
  <g>
    <defs>
      <path id="e" d="M85.35 14.707v3.687h-2.321c-.956-1.501-3.481-2.526-6.008-2.526-5.393 0-8.942 5.052-8.942 12.357V47.68h-4.232V13.34h4.096v5.258c1.912-4.097 5.325-6.555 9.694-6.555 2.866.001 6.211 1.092 7.713 2.664z"/>
    </defs>
    <use fill="#FFF" overflow="visible" xlink:href="#e"/>
    <clipPath id="f">
      <use overflow="visible" xlink:href="#e"/>
    </clipPath>
    <path fill="#FFF" d="M0 0h122.488v62.835H0z" clip-path="url(#f)"/>
  </g>
  <g>
    <defs>
      <path id="g" d="M94.977 59.354c4.232 0 7.032-4.711 10.104-11.812l-15.77-32.153V13.34h3.687l14.132 29.015 11.742-29.015h3.617v2.049l-13.243 32.632c-3.072 7.439-7.101 14.813-13.723 14.813-1.297 0-3.208-.271-4.369-.683v-3.413c1.229.342 2.867.616 3.823.616z"/>
    </defs>
    <use fill="#FFF" overflow="visible" xlink:href="#g"/>
    <clipPath id="h">
      <use overflow="visible" xlink:href="#g"/>
    </clipPath>
    <path fill="#FFF" d="M0 0h122.488v62.835H0z" clip-path="url(#h)"/>
  </g>
  <g>
    <defs>
      <path id="i" d="M313.648 22.757l-.311-.596c-.084-.14-.03-.105-.229-.385l-.17-.221c-.249-.303-.383-.56-.811-.912-.744-.693-1.484-1.094-2.278-1.348-1.576-.535-3.156-.402-4.441.063-1.303.45-2.338 1.319-2.885 2.313-.604.999-.484 2.044-.376 2.766.219.729.498 1.228.744 1.532.218.313.333.48.333.48s-.067-.191-.192-.551c-.169-.344-.252-.886-.334-1.543.046-.648.109-1.459.714-2.094.554-.638 1.432-1.112 2.454-1.325 1.021-.205 2.197-.108 3.215.349.51.205 1.001.599 1.285.926.163.093.387.497.591.783l.131.19c.002.014.059.13.063.148l.185.416c.458 1.141.315 2.194-.363 3.146-.676.959-1.9 1.741-3.215 2.206-.798.345-1.774.583-2.632.639 0 0-8.832 1-20.332-3.375 0 0 9.332 7.293 20.665 6.126l-.001-.005c.213-.007.425-.023.635-.058.865-.107 1.85-.333 2.667-.646 1.688-.651 3.337-1.661 4.487-3.318 1.244-1.62 1.239-4.124.401-5.706z"/>
    </defs>
    <use fill="#FFF" overflow="visible" xlink:href="#i"/>
    <clipPath id="j">
      <use overflow="visible" xlink:href="#i"/>
    </clipPath>
    <path fill="#FFF" d="M262.119 18.95h64.004v19.793h-64.004z" clip-path="url(#j)"/>
  </g>
  <g>
    <defs>
      <path id="k" d="M324.867 33.282c-.844.355-1.959 1.115-3.563 1.64-1.613.507-3.527 1.23-5.87 1.454-.576.089-1.169.186-1.78.279-.621.011-1.258.021-1.913.04-1.305.033-2.672.129-4.104-.051-1.431-.106-2.918-.185-4.437-.512-1.528-.243-3.098-.533-4.662-.992-1.573-.363-3.2-.893-4.866-1.477-1.691-.537-3.251-1.188-4.989-1.823-2.483-.961-5.03-1.999-7.6-3.059h-.001c-9.126-3.583-17.577-4.904-18.964-4.716 1.456.572 2.914 1.148 4.368 1.747 4.262 1.709 8.512 3.481 12.71 5.148l.004.003 11.939 4.752s1.193.537 3.276 1.157l-.018-.002s11.165 4.104 22.673.672l-.045-.001c1.763-.475 3.257-1.146 4.526-1.666 1.594-.653 2.634-1.588 3.428-2.023.77-.492 1.141-1.2 1.141-1.2s-.433.222-1.253.63z"/>
    </defs>
    <use fill="#FFF" overflow="visible" xlink:href="#k"/>
    <clipPath id="l">
      <use overflow="visible" xlink:href="#k"/>
    </clipPath>
    <path fill="#FFF" d="M262.119 18.95h64.004v19.965h-64.004z" clip-path="url(#l)"/>
  </g>
</svg>
